<svg xmlns="http://www.w3.org/2000/svg" width="16" height="16" viewBox="0 0 16 16"><g><g><g/><g><path fill="none" stroke="#929292" stroke-linecap="round" stroke-linejoin="round" stroke-miterlimit="20" stroke-width=".83" d="M4.693 3A6 6 0 0 0 3.03 4.647"/></g><g><path fill="none" stroke="#929292" stroke-linecap="round" stroke-linejoin="round" stroke-miterlimit="20" stroke-width=".83" d="M2.12 6.81a6 6 0 0 0 0 2.339"/></g><g><path fill="none" stroke="#929292" stroke-linecap="round" stroke-linejoin="round" stroke-miterlimit="20" stroke-width=".83" d="M3 11.31a6 6 0 0 0 1.647 1.663"/></g><g><path fill="none" stroke="#929292" stroke-linecap="round" stroke-linejoin="round" stroke-miterlimit="20" stroke-width=".83" d="M6.81 13.876a6 6 0 0 0 2.333 0"/></g><g><path fill="none" stroke="#929292" stroke-linecap="round" stroke-linejoin="round" stroke-miterlimit="20" stroke-width=".83" d="M11.31 12.997a6 6 0 0 0 1.663-1.647"/></g><g><path fill="none" stroke="#929292" stroke-linecap="round" stroke-linejoin="round" stroke-miterlimit="20" stroke-width=".83" d="M13.876 9.199a6 6 0 0 0 0-2.339"/></g><g><path fill="none" stroke="#929292" stroke-linecap="round" stroke-linejoin="round" stroke-miterlimit="20" stroke-width=".83" d="M12.997 4.693A6 6 0 0 0 11.35 3.03"/></g><g><path fill="none" stroke="#929292" stroke-linecap="round" stroke-linejoin="round" stroke-miterlimit="20" stroke-width=".83" d="M9.199 2.124a6 6 0 0 0-2.339-.013"/></g><g><path fill="none" stroke="#929292" stroke-linecap="round" stroke-linejoin="round" stroke-miterlimit="20" stroke-width=".83" d="M8.003 5.33v0L6.67 7.997v0h2.667v0l-1.334 2.666v0"/></g><g><path fill="none" stroke="#929292" stroke-linecap="round" stroke-linejoin="round" stroke-miterlimit="20" stroke-width=".83" d="M8 14A6 6 0 1 0 8 2"/></g></g></g></svg>