<svg xmlns="http://www.w3.org/2000/svg" width="20" height="20" viewBox="0 0 20 20"><g><g><g/><g><path fill="none" stroke="#ffffff" stroke-linecap="round" stroke-linejoin="round" stroke-miterlimit="20" stroke-width=".83" d="M5.83 4.167c0-.92.746-1.667 1.667-1.667h8.333c.92 0 1.667.746 1.667 1.667V12.5c0 .92-.747 1.667-1.667 1.667H7.497c-.92 0-1.667-.747-1.667-1.667z"/></g><g><path fill="#ffffff" d="M13 9.08h-2.101l1.026-2.888h.05zm-2.988 2.5l.644-1.812h2.587l.644 1.812h.813l-2.35-6.4h-.8l-2.35 6.4z"/></g><g><path fill="none" stroke="#ffffff" stroke-linecap="round" stroke-linejoin="round" stroke-miterlimit="20" stroke-width=".83" d="M14.167 14.163v1.667c0 .92-.747 1.667-1.667 1.667H4.167c-.92 0-1.667-.747-1.667-1.667V7.497c0-.92.746-1.667 1.667-1.667h1.666v0"/></g></g></g></svg>