<svg xmlns="http://www.w3.org/2000/svg" width="16" height="16" viewBox="0 0 16 16"><defs><clipPath id="plwda"><path fill="#fff" d="M0 2a2 2 0 0 1 2-2h12a2 2 0 0 1 2 2v12a2 2 0 0 1-2 2H2a2 2 0 0 1-2-2z"/></clipPath></defs><g><g><path fill="#fff" d="M0 2a2 2 0 0 1 2-2h12a2 2 0 0 1 2 2v12a2 2 0 0 1-2 2H2a2 2 0 0 1-2-2z"/><path fill="none" stroke="#194d8d" stroke-miterlimit="20" stroke-width="2" d="M0 2a2 2 0 0 1 2-2h12a2 2 0 0 1 2 2v12a2 2 0 0 1-2 2H2a2 2 0 0 1-2-2z" clip-path="url(&quot;#plwda&quot;)"/></g><g><path fill="#194d8d" d="M11.434 5.034a.8.8 0 0 1 1.198 1.056l-.066.076-5.6 5.6a.8.8 0 0 1-1.056.066l-.076-.066-2.4-2.4A.8.8 0 0 1 4.49 8.168l.076.066L6.4 10.068z"/></g></g></svg>