<svg xmlns="http://www.w3.org/2000/svg" width="23" height="23" viewBox="0 0 23 23"><defs><clipPath id="kp6za"><path fill="#fff" d="M11.5 23C17.851 23 23 17.851 23 11.5S17.851 0 11.5 0 0 5.149 0 11.5 5.149 23 11.5 23z"/></clipPath></defs><g><g><path fill="#fff" d="M11.5 23C17.851 23 23 17.851 23 11.5S17.851 0 11.5 0 0 5.149 0 11.5 5.149 23 11.5 23z"/><path fill="none" stroke="#526f93" stroke-miterlimit="20" d="M11.5 23C17.851 23 23 17.851 23 11.5S17.851 0 11.5 0 0 5.149 0 11.5 5.149 23 11.5 23z" clip-path="url(&quot;#kp6za&quot;)"/></g><g><path fill="#526f93" d="M15.8 13l-4-4-4 4h8"/></g></g></svg>