<svg xmlns="http://www.w3.org/2000/svg" width="13" height="13" viewBox="0 0 13 13"><defs><clipPath id="139ua"><path fill="#fff" d="M0 2a2 2 0 0 1 2-2h9a2 2 0 0 1 2 2v9a2 2 0 0 1-2 2H2a2 2 0 0 1-2-2z"/></clipPath></defs><g><g><path fill="#faa41f" d="M0 2a2 2 0 0 1 2-2h9a2 2 0 0 1 2 2v9a2 2 0 0 1-2 2H2a2 2 0 0 1-2-2z"/><path fill="none" stroke="#faa41f" stroke-miterlimit="20" stroke-width="2" d="M0 2a2 2 0 0 1 2-2h9a2 2 0 0 1 2 2v9a2 2 0 0 1-2 2H2a2 2 0 0 1-2-2z" clip-path="url(&quot;#139ua&quot;)"/></g><g><path fill="#fff" d="M9.72 3.22a.75.75 0 0 1 1.123.99l-.063.07-5.25 5.25a.75.75 0 0 1-.99.063l-.07-.063-2.25-2.25a.75.75 0 0 1 .99-1.123l.07.063L5 7.939z"/></g></g></svg>