<svg xmlns="http://www.w3.org/2000/svg" width="128" height="128" viewBox="0 0 128 128"><g><g><g><g/><g><path fill="none" stroke="#526f93" stroke-linecap="round" stroke-linejoin="round" stroke-miterlimit="20" stroke-width="4" d="M21.33 42.663v0-10.666c0-5.891 4.776-10.667 10.667-10.667h10.666v0"/></g><g><path fill="none" stroke="#526f93" stroke-linecap="round" stroke-linejoin="round" stroke-miterlimit="20" stroke-width="4" d="M21.33 85.33v10.667c0 5.89 4.776 10.666 10.667 10.666h10.666v0"/></g><g><path fill="none" stroke="#526f93" stroke-linecap="round" stroke-linejoin="round" stroke-miterlimit="20" stroke-width="4" d="M85.33 21.33v0h10.667c5.89 0 10.666 4.776 10.666 10.667v10.666"/></g><g><path fill="none" stroke="#526f93" stroke-linecap="round" stroke-linejoin="round" stroke-miterlimit="20" stroke-width="4" d="M85.33 106.663v0h10.667c5.89 0 10.666-4.775 10.666-10.666V85.33v0"/></g></g><g><g/><g><path fill="none" stroke="#faa41f" stroke-linecap="round" stroke-linejoin="round" stroke-miterlimit="20" stroke-width="4" d="M40 46h16.5"/></g><g><path fill="none" stroke="#faa41f" stroke-linecap="round" stroke-linejoin="round" stroke-miterlimit="20" stroke-width="4" d="M40 58h16.5"/></g><g><path fill="none" stroke="#faa41f" stroke-linecap="round" stroke-linejoin="round" stroke-miterlimit="20" stroke-width="4" d="M40 70h16.5"/></g><g><path fill="none" stroke="#faa41f" stroke-linecap="round" stroke-linejoin="round" stroke-miterlimit="20" stroke-width="4" d="M40 82h16.5"/></g><g><path fill="none" stroke="#faa41f" stroke-linecap="round" stroke-linejoin="round" stroke-miterlimit="20" stroke-width="4" d="M71.5 46H88"/></g><g><path fill="none" stroke="#faa41f" stroke-linecap="round" stroke-linejoin="round" stroke-miterlimit="20" stroke-width="4" d="M71.5 58H88"/></g><g><path fill="none" stroke="#faa41f" stroke-linecap="round" stroke-linejoin="round" stroke-miterlimit="20" stroke-width="4" d="M71.5 70H88"/></g><g><path fill="none" stroke="#faa41f" stroke-linecap="round" stroke-linejoin="round" stroke-miterlimit="20" stroke-width="4" d="M71.5 82H88"/></g></g></g></g></svg>