<svg xmlns="http://www.w3.org/2000/svg" width="16" height="16" viewBox="0 0 16 16"><g><g><g/><g><path fill="none" stroke="#404040" stroke-linecap="round" stroke-linejoin="round" stroke-miterlimit="20" stroke-width=".83" d="M8.003 13.337a1.333 1.333 0 1 0 0-2.667 1.333 1.333 0 0 0 0 2.667z"/></g><g><path fill="none" stroke="#404040" stroke-linecap="round" stroke-linejoin="round" stroke-miterlimit="20" stroke-width=".83" d="M4.663 5.337a1.333 1.333 0 1 0 0-2.667 1.333 1.333 0 0 0 0 2.667z"/></g><g><path fill="none" stroke="#404040" stroke-linecap="round" stroke-linejoin="round" stroke-miterlimit="20" stroke-width=".83" d="M11.333 5.337a1.333 1.333 0 1 0 0-2.667 1.333 1.333 0 0 0 0 2.667z"/></g><g><path fill="none" stroke="#404040" stroke-linecap="round" stroke-linejoin="round" stroke-miterlimit="20" stroke-width=".83" d="M4.67 5.33v1.333c0 .737.597 1.334 1.333 1.334h4c.737 0 1.334-.597 1.334-1.334V5.33v0"/></g><g><path fill="none" stroke="#404040" stroke-linecap="round" stroke-linejoin="round" stroke-miterlimit="20" stroke-width=".83" d="M8.003 8v2.667"/></g></g></g></svg>