<svg xmlns="http://www.w3.org/2000/svg" width="15" height="15" viewBox="0 0 15 15"><g><g><g><path fill="none" stroke="#404040" stroke-linecap="round" stroke-linejoin="round" stroke-miterlimit="20" stroke-width=".83" d="M5.7 7.5a2 2 0 0 1 2-2h3.8a2 2 0 0 1 2 2v3.8a2 2 0 0 1-2 2H7.7a2 2 0 0 1-2-2z"/></g><g><path fill="none" stroke="#404040" stroke-linecap="round" stroke-linejoin="round" stroke-miterlimit="20" stroke-width=".83" d="M3.3 9.1v0h-.6a1.2 1.2 0 0 1-1.2-1.2V2.5a1.2 1.2 0 0 1 1.2-1.2h5.4a1.2 1.2 0 0 1 1.2 1.2v.6"/></g></g></g></svg>