<svg xmlns="http://www.w3.org/2000/svg" width="20" height="20" viewBox="0 0 20 20"><g><g><g/><g><path fill="none" stroke="#ffffff" stroke-linecap="round" stroke-linejoin="round" stroke-miterlimit="20" d="M7.503 4.17v0H5.837c-.92 0-1.667.746-1.667 1.667v10c0 .92.746 1.666 1.667 1.666h8.333c.92 0 1.667-.746 1.667-1.666v-10c0-.92-.747-1.667-1.667-1.667h-1.667v0"/></g><g><path fill="none" stroke="#ffffff" stroke-linecap="round" stroke-linejoin="round" stroke-miterlimit="20" d="M7.5 3.5a1 1 0 0 1 1-1h3a1 1 0 0 1 1 1v1.333a1 1 0 0 1-1 1h-3a1 1 0 0 1-1-1z"/></g><g><path fill="none" stroke="#ffffff" stroke-linecap="round" stroke-linejoin="round" stroke-miterlimit="20" d="M7.503 9.997h.008"/></g><g><path fill="none" stroke="#ffffff" stroke-linecap="round" stroke-linejoin="round" stroke-miterlimit="20" d="M10.83 9.997h1.667"/></g><g><path fill="none" stroke="#ffffff" stroke-linecap="round" stroke-linejoin="round" stroke-miterlimit="20" d="M7.503 13.337h.008"/></g><g><path fill="none" stroke="#ffffff" stroke-linecap="round" stroke-linejoin="round" stroke-miterlimit="20" d="M10.83 13.337h1.667"/></g></g></g></svg>